<svg xmlns="http://www.w3.org/2000/svg" viewBox="0 0 96 96">
<defs>
<linearGradient id="bg" x1="0" y1="0" x2="0" y2="1"><stop offset="0" stop-color="#3f8f5e"/><stop offset="1" stop-color="#22573a"/></linearGradient>
<filter id="lift" x="-20%" y="-20%" width="140%" height="150%"><feDropShadow dx="0" dy="2.5" stdDeviation="0.6" flood-color="#0b1a16" flood-opacity=".35"/></filter>
<clipPath id="tile"><rect width="96" height="96" rx="24"/></clipPath>
</defs>
<rect width="96" height="96" rx="24" fill="url(#bg)"/>
<circle cx="18" cy="8" r="48" fill="#fff" opacity=".07" clip-path="url(#tile)"/>
<g filter="url(#lift)" stroke-linecap="round" stroke-linejoin="round">
<path d="M38 30 q8 -10 16 -2 q10 -4 12 8 q10 4 4 14 q4 10 -8 12 q-4 10 -14 4 q-10 6 -14 -4 q-12 -2 -8 -14 q-6 -10 4 -14 q0 -6 8 -4 z" fill="#ef6a55"/>
<circle cx="74" cy="26" r="4" fill="#ef6a55"/><circle cx="22" cy="70" r="3" fill="#ef6a55"/>
<circle cx="50" cy="48" r="9" fill="#f7c35f"/>
<g transform="rotate(40 70 70)">
  <rect x="66" y="54" width="8" height="30" rx="3" fill="#fff4e0"/>
  <path d="M65 54 h10 l-2 -10 h-6 z" fill="#16302a"/>
</g></g>
</svg>
